<svg width="1876" height="960" viewBox="0 0 1876 960" fill="none" xmlns="http://www.w3.org/2000/svg">
<path opacity="0.26" d="M0.564278 931.395C-1.46061 915.393 2.23929 894.092 7.2784 877.149C8.85287 871.781 13.9347 874.983 15.2765 871.284C17.9058 864.107 15.9465 856.891 19.2888 849.283C20.4254 846.784 28.3887 850.966 29.3884 848.37C34.0316 836.351 34.673 823.978 39.87 807.596C40.9189 804.36 42.1245 801.17 43.4876 798.122C79.5619 727.405 120.987 700.506 157.093 664.705C168.648 653.768 181.483 643.739 194.578 635.292C216.376 621.049 245.391 614.624 265.322 602.353C267.647 600.907 263.234 594.791 263.467 594.027C267.467 582.191 270.699 596.998 276.365 596.784C287.995 596.407 299.293 594.403 309.971 591.357C319.834 588.532 329.307 584.846 337.978 580.798C345.69 577.206 333.375 565.583 343.99 571.038C344.713 571.407 344.822 579.521 347.272 579.683C352.764 580.037 362.033 576.098 366.082 575.726C373.986 575.01 375.153 574.654 382.369 573.083C392.272 571.017 404.653 572.481 414.862 568.895C417.065 568.102 412.652 560.725 416.093 558.745C419.461 556.765 429.309 555.893 432.812 557.308C436.352 558.704 435.857 565.151 436.638 566.498C442.945 577.891 451.694 559.751 453.133 559.178C478.536 549.026 501.8 557.158 525.987 556.454C544.443 555.906 564.158 552.861 581.667 553.894C602.497 555.163 619.752 560.63 639.778 561.642C641.884 561.76 640.256 552.143 642.85 552.272C646.024 552.434 649.214 552.639 652.42 552.892C676.803 554.813 700.6 559.404 723.43 568.532C726.017 569.576 721.328 577.245 723.83 578.777C739.208 587.951 761.727 608.337 777.627 574.553C788.364 577.872 801.424 581.754 809.847 590.75C815.252 596.539 807.471 604.24 815.884 601.929C817.782 601.42 817.012 593.225 819.752 593.051C831.308 592.329 842.783 597.22 854.42 595.412C856.793 595.026 857.6 587.966 858.479 586.843C865.815 577.794 871.131 596.315 872.771 597.923C885.366 609.978 896.638 608.646 910.015 611.747C913.123 612.473 911.433 602.382 914.498 602.748C930.346 604.764 946.304 609.102 960.537 616.582C963.715 618.272 958.847 625.489 960.274 626.701C966.58 631.949 971.462 617.361 977.554 622.109C978.847 623.092 976.523 629.678 976.619 630.48C978.12 643.067 985.37 627.33 986.505 627.201C1000.95 625.201 1005.59 644.378 1018.96 644.823C1020.56 644.858 1019.03 635.519 1023.42 636.143C1052.77 640.273 1082.59 649.477 1109.36 662.467C1113.59 664.487 1109.02 670.241 1109.12 671.096C1111.02 684.497 1117.52 668.492 1119.07 668.17C1131.15 666.124 1138.87 681.732 1150.18 664.894C1150.38 664.6 1150.58 664.295 1150.79 663.979C1197.36 680.593 1246.22 677.749 1291.4 700.196C1291.98 700.46 1290.14 708.706 1291.3 709.197C1305.58 715.148 1303.97 701.911 1314.26 686.619C1316.8 682.776 1323.02 702.322 1323.65 703.747C1325.8 709.032 1322.84 721.388 1323.6 722.425C1330.16 730.563 1330.36 689.353 1338.79 689.479C1339.06 689.551 1337.83 697.124 1338.55 697.887C1340.75 700.284 1343.07 697.283 1345.25 699.892C1350.29 705.913 1352.6 725.947 1360.32 714.058C1361.25 712.504 1359.06 689.225 1366.66 689.997C1368.75 690.226 1375.85 689.742 1381.39 689.735C1383.89 689.736 1385.99 689.852 1387.22 690.219C1391.15 691.406 1389.19 699.134 1389.48 699.437C1400.83 708.425 1397.25 712.884 1404.17 727.012C1411.28 741.027 1405.86 706.35 1407.54 702.221C1409.18 698.118 1417.81 705.294 1420.14 707.835C1422.43 710.397 1420.73 715.477 1422.67 716.834C1435.65 725.58 1424.98 698.889 1427.69 692.835C1433.71 678.499 1444.76 702.838 1453.34 703.58C1455.61 703.784 1452.61 698.386 1454.35 697.43C1461.19 693.707 1467.65 700.469 1474.13 691.036C1475.02 689.765 1476.88 678.089 1481.64 679.462C1482.65 679.759 1483.81 680.653 1485.13 682.375C1486.21 683.783 1486.26 690.52 1489.8 690.993C1495.09 691.72 1503.99 690.437 1508.32 686.725C1511.5 683.988 1503.95 675.248 1509.57 676.869C1512.09 677.585 1510.27 684.787 1514.87 685.622C1519.45 686.476 1529.22 682.715 1532.86 681.113C1536.5 679.523 1531.62 672.697 1531.74 672.074C1532.45 668.483 1538 662.167 1538.61 661.93C1568.88 648.999 1602.85 647.961 1629.73 628.204C1631.83 626.669 1626.22 620.001 1626.5 619.69C1632.43 612.342 1637.33 635.569 1646.5 639.165C1637.27 624.496 1641.98 625.444 1646.44 620.719C1646.44 620.714 1646.45 620.708 1646.45 620.702C1648.44 618.478 1643.71 613.461 1643.6 612.736C1641.79 601.993 1650.91 611.761 1653.06 613.584C1660.81 620.39 1656.85 608.938 1662.13 613.322C1667.52 617.56 1669.28 628.259 1674.22 624.585C1671.89 618.612 1659.04 607.919 1660.86 603.341C1667.36 586.938 1695.92 575.712 1705.16 565.387C1714.17 555.8 1715.52 551.505 1721.65 546.27C1732.59 536.52 1719.62 534.509 1719.18 524.443C1718.61 514.352 1742.36 532.403 1748.53 534.423C1752.96 535.832 1751.64 533.949 1751.94 532.884C1752.06 532.449 1752.44 532.14 1753.54 532.185C1757.44 532.277 1759.46 537.739 1762.59 534.56C1766 531.088 1759.65 516.344 1753.61 513.163C1741.15 505.999 1725.91 505.281 1733.39 498.749C1733.83 498.345 1740.81 502.186 1742.13 500.496C1752.4 486.612 1756.3 468.557 1764.93 452.647C1766.13 450.424 1774.19 454.23 1774.98 452.967C1781.15 443.169 1774.18 441.926 1764.3 437.351C1760.93 435.817 1757.21 433.909 1753.56 431.126C1774.38 437.05 1788.2 435.265 1790.41 424.417C1791.74 417.894 1782.28 417.238 1776.54 411.814C1774.82 410.182 1782.04 406.769 1777.84 405.118C1764.11 399.698 1747.37 401.058 1755.78 391.13C1756.17 390.698 1763.68 393.692 1764.47 392.094C1769.57 381.744 1754.9 377.715 1755.22 365.615C1755.47 356.136 1767.47 341.294 1770.78 331.008C1794.64 335.367 1790.89 324.416 1775.1 317.555C1776.94 310.822 1777.25 303.271 1780.63 297.032C1781.79 294.884 1788.47 297.528 1789.26 297.365C1801.74 294.891 1786.17 289.277 1785.79 287.679C1784.16 279.79 1786.34 273.191 1788.17 266.686C1790.26 259.406 1791.74 251.964 1785.95 243.609C1785.56 243.01 1768.84 240.999 1781.37 238.069C1782.23 237.843 1789.57 243.213 1790.6 236.362C1791.64 229.701 1800.89 216.181 1792.44 206.906C1790.43 204.554 1776.4 200.334 1786.48 194.702C1787.85 193.927 1792.72 194.032 1795.29 192.81C1803.41 188.677 1786.34 189.549 1800.09 183.88C1813.85 178.264 1823.03 167.513 1810.58 159.41C1810.2 159.11 1796.55 160.241 1795.87 157.178C1794.81 152.226 1795.16 144.427 1793.13 139.412C1792.17 137.028 1784.94 141.591 1784.64 141.232C1778.74 133.423 1776.61 125.878 1774.77 117.338C1773.67 111.477 1771.87 104.955 1766.96 98.7503C1764.51 95.6744 1751.62 100.559 1750.2 90.0266C1747.86 78.2681 1771.65 42.9341 1748.26 45.0094C1738.3 45.9434 1717.83 94.4825 1712.03 65.6851C1696.29 66.8612 1682.96 60.6817 1668.7 57.5644C1660.41 55.7866 1651.81 55.4834 1643.11 58.4707C1642.01 58.8347 1637.98 73.2286 1635.64 72.9484C1632.04 72.4979 1630.26 65.6458 1627.62 65.1429C1616.67 62.8845 1606.65 68.8081 1596.12 68.1585C1592.11 67.9343 1593.32 60.8541 1588.49 60.6103C1583.66 60.3832 1580.84 69.7631 1574.17 65.5745C1569.15 62.3828 1563.24 43.6991 1556.51 41.8593C1557.28 60.5393 1552.78 60.3944 1545.14 65.811C1543.67 66.8611 1545.71 73.2532 1545.04 74.0849C1542.34 77.6125 1539.27 72.4063 1536.73 76.2311C1536.11 77.1505 1536.49 83.5225 1536.01 84.6336C1531.97 94.3203 1523.26 80.5267 1521.74 78.1259C1515.99 69.0071 1514.19 77.4563 1509.98 74.0007C1505.84 70.5393 1511.33 65.4746 1506.61 63.527C1504.21 62.54 1501.64 61.9076 1499.1 61.5086C1490.93 60.2989 1482.19 61.5251 1474.7 62.1443C1470.78 62.5181 1474.45 70.6725 1473.91 70.9222C1466.8 73.8355 1455.2 66.9019 1457.35 84.3108C1444.65 59.1844 1442.73 70.9879 1446.99 78.7136C1446.98 78.723 1446.95 78.7563 1446.94 78.7668C1449.34 83.2067 1450.93 88.0754 1445.7 89.0908C1444.53 89.3211 1428.52 76.1029 1428.38 71.6932C1428.31 69.2037 1430.84 68.309 1432.98 66.7637C1433.26 66.4867 1434.02 65.6048 1434.32 65.3572C1436.83 63.4537 1441.78 60.077 1444.45 56.8025C1445.67 54.7156 1450.94 33.1631 1452.11 31.8454C1460.58 20.8144 1465.63 51.6768 1466.34 53.2412C1473.18 70.8096 1478.71 49.1977 1480.94 47.5497C1486.81 42.8271 1492.52 42.5836 1497.79 41.7619C1500.74 41.2877 1503.68 40.582 1506.52 38.6204C1511.49 35.2081 1510.58 14.9057 1514.73 15.2407C1528.62 16.3419 1535.17 44.2944 1546.72 18.9731C1549.2 13.5789 1545.12 -8.44122 1556.29 8.42263C1557 9.48352 1565.33 25.036 1569.22 14.7465C1569.7 13.4485 1569.39 6.98508 1570.09 6.40864C1574.84 2.67433 1578.33 7.68873 1583.61 5.03048C1588.9 2.37351 1595.36 -1.49232 1601.69 0.594992C1605.5 1.83843 1610.46 13.8523 1612.27 16.7982C1617.3 25.2736 1622.86 11.3754 1625.93 21.7234C1628.88 32.1269 1622.64 47.719 1630.47 54.5708C1631.17 37.7705 1632.31 20.5378 1633.3 3.65065C1646.83 4.4653 1660.29 8.01005 1675.38 11.5476C1680.45 12.8646 1685.48 13.9361 1690.81 14.5471C1693.03 14.7844 1692.17 5.4996 1694.61 5.52995C1705.05 5.74447 1712.89 13.5989 1724.76 13.4478C1733.9 13.3056 1746.46 6.41699 1758.45 7.67741C1759.22 28.0555 1777.43 27.4781 1790.57 37.5333C1794.97 40.9512 1791.87 45.1196 1794.09 48.6714C1802.17 62.4317 1807.27 45.1865 1812.55 46.0258C1836.32 52.8155 1809.14 80.3401 1818.43 95.402C1818.44 95.4151 1818.45 95.4283 1818.47 95.4418C1819.36 95.8031 1840.91 94.5385 1842.6 95.2239C1853.45 98.8667 1836.67 99.3787 1837.27 104.391C1838.33 113.658 1836.02 120.876 1845.19 128.843C1847.85 131.025 1862.49 134.675 1854.65 143.439C1853.62 144.564 1846.97 145.949 1846.75 146.662C1843.26 159.265 1863.9 154.564 1872.46 160.099C1881.03 165.785 1868.14 179.058 1864.15 181.487C1853.97 188.305 1858.97 178.006 1857.82 177.838C1844.64 176.391 1847.95 183.202 1847.46 188.713C1826.82 191.884 1828.72 198.642 1847 194.395C1849 193.912 1846.64 189.886 1847.46 188.713C1868.37 191.051 1871.88 200.728 1853.04 210.674C1844.16 215.216 1833.76 211.509 1837.6 223.792C1839.25 229.384 1853.67 227.493 1857.43 232.847C1865.98 245.336 1851.16 259.703 1851.57 271.436C1851.71 275.81 1860.11 272.776 1860.46 275.86C1860.53 276.561 1860.55 277.249 1860.53 277.925C1860.36 284.33 1854.8 289.259 1856.5 296.049C1856.68 296.721 1865.06 296.517 1864.82 298.675C1863.09 315.219 1855.49 328.517 1852.41 345.444C1850.93 353.613 1852.83 369.047 1850.4 377.371C1846.26 391.817 1831.17 407.712 1831.65 420.806C1831.94 429.348 1840.37 429.082 1845.21 433.678C1853.06 441.079 1839.33 448.234 1832.68 450.922C1831.37 451.452 1830.33 451.811 1829.79 451.978C1829.76 451.988 1829.68 451.226 1829.43 450.277C1828.9 448.306 1827.59 445.518 1824.28 447.528C1821.52 447.675 1820.94 448.131 1821.48 448.7C1822.71 450.015 1829.78 451.918 1829.79 451.978C1827.68 452.59 1823.06 466.235 1824.03 469.366C1824.57 471.059 1832.4 471.752 1832.53 472.604C1835.31 493.113 1834.14 512.901 1821.31 538.819C1820.99 539.233 1813.03 535.572 1812.4 536.547C1806.97 544.657 1806.19 553.15 1805.65 562.477C1806.16 567.222 1807.09 572.271 1807.12 577.353C1807.15 589.895 1800.3 596.654 1784.24 593.706C1781.24 601.671 1768.72 607.621 1761.33 610.442C1753.99 613.262 1766.46 624.768 1766.31 625.497C1761.67 647.696 1745.92 650.133 1729.1 662.681C1721.09 668.745 1706.29 682.733 1697.61 690.102C1694.72 692.65 1691.84 693.932 1689.02 695.06C1685.94 696.17 1682.98 697.06 1680.41 700.172C1679.8 700.903 1684.28 707.074 1684.18 707.461C1682.1 718.986 1676.25 701.058 1673.32 698.898C1662.72 691.006 1656.86 686.931 1651.33 696.242C1650.09 698.363 1656.78 724.928 1653.84 728.164C1650.06 732.295 1647.53 722.876 1643.69 727.377C1643.36 727.753 1646.07 732.991 1642.91 734.257C1628.28 740.198 1611.28 744.231 1596.4 751.141C1594.35 752.067 1600.65 759.562 1597.72 761.048C1583.96 768.017 1567.89 773.824 1552.19 774.659C1548.32 774.835 1548.37 767.885 1546.98 766.312C1538.58 756.785 1537.48 775.141 1536.43 775.822C1528.48 781.316 1520.24 783.917 1511.95 785.434C1495.98 788.302 1479.11 787.365 1460.84 795.911C1459.49 796.649 1450.14 816.967 1442.14 802.278C1441.56 801.313 1433.92 786.238 1430.81 797.75C1430.6 798.47 1435.08 806.215 1429.13 806.168C1423.23 806.114 1414.4 812.707 1405.69 804.396C1402.88 801.788 1395.86 786.344 1389.66 799.614C1389.63 799.663 1389.59 799.794 1389.52 799.993C1388.49 803.552 1379.38 829.116 1374.33 810.444C1373.47 807.19 1373.2 786.133 1364.82 797.279C1363.17 799.432 1366.44 804.036 1362.02 807.116C1355.11 811.861 1345.82 806.323 1337.11 815.603C1335.63 817.254 1328.73 831.458 1323.92 820.414C1323.18 818.685 1324.93 811.7 1322.28 810.817C1309.71 806.579 1296.49 810.421 1284.46 804.462C1280.19 802.357 1283.52 791.231 1279.34 787.768C1275.1 784.305 1266.66 780.452 1261.45 785.075C1256.17 789.695 1259.15 808.329 1251.99 808.926C1220.51 811.4 1192.87 796.036 1164.33 789.148C1160.12 788.124 1162.47 795.177 1156.15 794.106C1147.32 792.615 1136.32 791.44 1124.72 789.496C1105.54 786.295 1085.67 781.135 1075.38 770.025C1062.14 755.804 1083.49 751.881 1072.63 744.889C1067.41 741.542 1056.56 760.744 1055.08 761.095C1040.12 764.681 1032.75 753.446 1020.1 753.542C1017.48 753.561 1018.05 762.454 1015.83 762.378C1008.19 762.178 1001.52 756.761 994.416 755.876C991.261 755.507 990.393 762.006 987.661 760.874C981.084 758.232 975.686 754.203 970.398 746.741C969.914 746.061 975.777 739.051 970.803 737.623C962.765 735.34 953.958 727.179 943.287 731.193C940.106 732.408 936.758 746.953 933.033 735.568C932.254 733.19 937.721 716.042 927.448 729.631C925.717 731.883 909.611 749.723 906.803 735.33C906.062 731.541 905.324 716.368 901.518 717.9C900.991 718.162 901.091 726.388 898.177 726.556C887.932 727.011 877.966 723.997 867.51 724.354C864.719 724.466 866.947 733.415 862.847 733.325C851.571 733.087 838.504 728.225 828.44 723.541C824.735 721.799 828.789 715.607 828.654 714.817C826.483 701.968 820.548 717.527 818.852 718.165C808.315 721.91 802.666 712.947 793.608 713.288C791.12 713.364 791.342 721.378 790.736 721.973C784.552 727.737 790.84 714.622 788.017 712.508C780.075 706.534 770.226 705.353 761.233 704.76C757.937 704.556 759.965 714.14 757.036 713.856C739.626 712.343 722.111 708.541 706.319 701.081C703.335 699.659 706.347 693.046 705.932 691.368C703.052 679.633 694.285 693.757 692.558 694.979C684.735 700.56 683.05 694.091 676.804 694.424C664.558 695.166 651.381 694.304 638.524 692.874C619.676 690.764 600.822 687.421 584.848 685.259C549.814 680.622 522.228 674.403 489.344 678.786C487.251 679.066 490.151 688.151 488.381 688.511C465.757 692.729 443.086 692.275 421.601 699.454C419.85 700.026 424.204 708.123 421.503 709.326C415.962 711.859 408.642 713.056 402.14 711.797C398.972 711.2 400.934 702.898 397.752 702.458C390.277 701.44 382.826 702.863 376.377 706.293C373.619 707.78 380.641 715.065 376.913 716.314C370.203 718.63 363.602 721.123 356.944 723.561C337.953 730.521 320.115 736.223 300.605 736.72C298.815 736.752 288.841 721.28 287.319 726.136C289.549 730.715 292.473 735.934 295.02 740.738C281.419 749.987 271.1 756.704 261.317 764.996C244.401 780.634 227.777 795.389 214.761 810.218C213.703 811.43 222.92 815.524 220.958 817.854C209.591 831.368 204.269 844.248 192.634 847.243C191.501 847.532 175.762 840.764 177.242 844.234C177.393 844.534 177.714 845.842 178.59 847.013C179.381 848.171 180.472 849.873 182.089 850.849C182.603 851.122 190.553 852.079 190.476 853.526C189.695 862.716 186.199 880.101 180.339 896.54C179.372 899.242 171.074 895.804 170.313 897.722C164.972 911.511 170.778 927.673 162.574 941.463C157.055 950.743 142.512 946.719 127.902 951.312C125.841 951.94 125.324 957.877 116.915 957.896C95.7643 958.004 72.7248 954.392 50.1696 954.843C45.3114 954.914 50.2795 963.141 38.7104 957.995C37.9364 957.628 34.2326 951.713 30.3052 950.128C27.5892 949.038 18.9862 950.558 15.5347 948.403C12.0858 946.275 19.3243 944.202 15.3063 940.696C11.2417 937.105 1.46465 938.325 0.564278 931.395ZM1727.94 621.521C1717.93 620.083 1738.32 641.991 1738.15 631.947C1738.11 631.436 1728.45 621.572 1727.94 621.521ZM1669.52 34.9391C1670.17 36.4414 1670.83 37.5772 1671.48 38.3956C1676.33 45.1865 1682.09 29.409 1679.01 19.745C1677.79 15.8937 1676.05 16.1817 1674.4 18.3417C1670.94 22.1707 1668.31 32.1873 1669.52 34.9391ZM1593.23 41.9675C1601.67 52.1618 1602.24 9.73153 1593.33 18.5192C1592.81 19.0175 1592.73 41.377 1593.23 41.9675ZM124.634 927.704C124.233 927.767 123.684 931.957 124.074 932.086C133.48 934.686 134.571 926.307 124.634 927.704ZM1522.09 56.2242C1524.98 61.7735 1531.8 54.6752 1528.18 47.769C1525.3 42.2102 1518.46 49.3204 1522.09 56.2242ZM1456.69 717.793C1456.5 717.379 1453.41 717.636 1453.99 720.086C1455.88 727.985 1459.69 724.811 1456.69 717.793ZM1409.34 100.573C1412.15 98.731 1414.8 98.2408 1417.37 98.2522L1417.08 98.4804C1431.47 97.561 1454.13 110.139 1437.29 120.545C1433.86 122.509 1436.5 106.541 1430.68 107.376C1428.56 107.643 1427.31 108.672 1426.46 110.155C1426.42 110.2 1426.25 110.312 1426.2 110.355C1424.38 113.175 1424.12 117.655 1424.02 120.466C1423.84 123.366 1423.86 124.194 1418.75 123.152C1417.6 122.924 1413.68 118.398 1411.43 112.793C1409.09 107.242 1408.81 100.814 1409.34 100.511C1409.34 100.532 1409.34 100.552 1409.34 100.573ZM1699.95 598.768C1699.59 598.577 1696.33 601.283 1696.52 601.63C1701.45 610.115 1708.3 604.401 1699.95 598.768ZM1279.58 707.246C1279.4 706.392 1269.95 704.542 1269.5 705.258C1262.58 720.106 1282.21 723.961 1279.58 707.246ZM1771.44 330.952C1762.82 324.766 1762.63 319.196 1775.08 317.574C1773.68 321.995 1772.81 326.502 1771.44 330.952Z" fill="#333333"/>
</svg>
