<svg width="1338" height="1794" viewBox="0 0 1338 1794" fill="none" xmlns="http://www.w3.org/2000/svg">
<path d="M1207.77 1770.03C1213.86 1597.86 1186.9 1477.2 1139.41 1395.31L1025.95 1791.72L1207.77 1770.03Z" fill="#737373"/>
<path d="M387.378 1479.15L1025.95 1791.72L723.811 1263.17C530.304 1312.76 358.849 1444.99 387.378 1479.15Z" fill="#737373"/>
<path d="M1336.09 708.2L3.86616 3.741L723.811 1263.17C878.586 1223.52 1047.47 1236.74 1139.41 1395.31L1336.09 708.2Z" fill="#737373"/>
<path d="M1025.95 1791.72L387.378 1479.15C358.849 1444.99 530.304 1312.76 723.811 1263.17M1025.95 1791.72L1207.77 1770.03C1213.86 1597.86 1186.9 1477.2 1139.41 1395.31M1025.95 1791.72L1139.41 1395.31M1025.95 1791.72L723.811 1263.17M1139.41 1395.31L1336.09 708.2L3.86616 3.741L723.811 1263.17M1139.41 1395.31C1047.47 1236.74 878.586 1223.52 723.811 1263.17" stroke="#FFFB01" stroke-width="3"/>
</svg>
