<svg version="1.2" xmlns="http://www.w3.org/2000/svg" viewBox="0 0 633 439" width="633" height="439">
	<style>
		.s0 { fill: #000000 } 
	</style>
	<g>
		<path class="s0" d="m312.5 0.9c-8.7 2.3-17.3 8.4-20.8 14.8-6 11.1-5.7 21.7 1 40.5l3.5 9.9-4.2 14.2c-6.3 21.3-5.2 19.7-16.6 24.7-5.5 2.3-12.6 5.7-15.9 7.3-5.7 2.9-6.6 3.1-19 3.1-12.1 0.1-13.4 0.3-18.9 2.9-8.2 3.8-14.2 9-17.7 15.3-1.7 3-3.5 5.6-3.9 5.9-0.8 0.5-46.7 5.5-50.5 5.5-2 0-2.3-1.1-4.4-13.8-6.6-40.3-17.6-65.2-28.7-65.2-4.9 0-7.1 1.4-9.5 6.2-6.6 12.9-6.5 44.4 0.2 90.8 7.6 53 17.9 87.5 27.4 91.8 7.8 3.6 12.2-0.6 16.1-14.9 1.4-5.1 1.8-10.7 1.8-27.4 0.1-11.6-0.3-26.5-0.8-33.1l-0.8-12.1 4.8-0.8c9-1.3 38.9-4.3 39.6-3.8 0.8 0.4-12.3 18.4-21.6 29.7l-6.6 7.9v15.6c-0.1 10.4-0.7 18.8-1.9 25.3-1.5 8.5-1.5 9.8-0.3 9.8 2 0 22.5-10.8 31-16.3 10.3-6.7 26.4-20 33.1-27.4l6-6.7 1.4 3.4c0.8 1.9 5.1 12.3 9.5 23 4.4 10.7 10.1 26 12.6 34 2.6 7.9 4.9 14.6 5.1 14.9 0.3 0.2 5.1-4 10.7-9.5 14.9-14.4 27.9-25.3 48.6-40.8 32.8-24.4 53.9-37.5 86.1-53.4l21.5-10.5 17.5 1.7c9.7 0.9 21.6 2.2 26.5 2.8l8.8 1.1-0.6 3.9c-0.4 2.1-1.1 11.9-1.7 21.7-1.4 26.3 0.5 45.6 5.6 56.4 4.9 10.3 14.1 8.5 20.4-4.2 12.4-24.6 25.1-95.1 25.1-139.6 0-15-1.2-23.6-4.3-31.5-1.8-4.4-2.9-5.9-6-7.4-3.7-1.8-4-1.8-7.8-0.1-10.1 4.6-19.9 29.4-26 65.7-2.1 12.5-2.5 14.1-3.7 13.4-0.4-0.2-10.8-1.4-23.2-2.5-31.2-3-28.6-2.3-31.5-8.1-7.5-14.7-25.9-22.8-43.2-18.9-4.5 1-5.4 0.8-16.3-3.4-15.7-6.1-28-10-28.7-9.3-0.9 0.9 6.5 8.3 11.4 11.4 2.4 1.5 4.3 2.9 4.3 3.2 0 0.8-38.3 19.1-38.8 18.5-1-1 2.1-55.5 3.2-55.5 0.5 0 4.6 1.5 9.1 3.4 4.4 1.9 10.6 4 13.7 4.7 7.4 1.6 8.8 0.6 8.8-6.2 0-2.7 0.6-6.3 1.4-8.1 0.8-1.8 1.8-4.9 2.1-7 0.4-2.9 1.2-3.8 3.5-4.7 1.7-0.5 3-1.3 3-1.6 0-0.3-1.1-3.2-2.5-6.5-2.2-5.2-2.4-6.9-1.9-12.7 0.4-4.1 0.2-8.5-0.6-11.2-1.1-4.2-1-4.4 1.9-7.3 5.2-5.1 5.4-11.3 0.5-14.4-1.3-0.9-7.8-3.2-14.2-5.1-12.2-3.6-27.3-5.1-33.7-3.4z"/>
		<path class="s0" d="m79.4 72.4c-12 2.6-14.9 4.3-17.7 10.4-2.1 4.4-2.2 6.2-2.2 27.2 0.1 22.6 0.9 33.5 4.6 59.5 6.9 48.5 16.9 82.8 26.3 90 4.6 3.5 8.9 4 18.2 2 4.3-0.9 8.9-1.8 10.1-2.1l2.2-0.4-2.3-3.5c-8.9-13-20.3-58.8-25.5-102-4.9-40.8-4.8-68.2 0.4-81.8 0.9-2.2-1.1-2.2-14.1 0.7z"/>
		<path class="s0" d="m540.3 71.4c2.9 7.4 3.2 11.4 3.2 36.6-0.1 28.4-0.9 38.2-5.6 66.5-6.7 39.6-15.3 69.8-23 80.7-1.2 1.6-1.9 3.1-1.7 3.3 1.2 1.2 20.7 4.6 23.6 4.1 8.9-1.4 14.7-11 21.2-35 10.8-39.6 16.3-77.8 16.4-115.1 0.1-25.7-0.4-28.9-5-34.5-2.9-3.4-6.1-4.5-18-6.5-11.1-1.8-11.7-1.8-11.1-0.1z"/>
		<path class="s0" d="m38 107.9c-17.6 4-19.8 8.9-17.7 39.7l0.9 12.1-7.7 1.2c-8.7 1.3-11.3 2.4-12.4 5.3-0.8 2.3 0.5 14.3 2 17 1.4 2.7 5.5 3.3 13.7 1.9 8.6-1.5 8.7-1.4 9.7 6.4 0.4 2.7 2 11.1 3.6 18.5 3.5 16.3 6.2 21.4 13 24.8 4.6 2.3 4.8 2.3 13.4 0.8 4.8-0.9 9-1.8 9.3-2 0.2-0.3-1.2-6.3-3.2-13.3-6.7-23.2-12.9-65.9-14.2-98.2-0.5-10.7-1.1-16.1-1.8-16-0.6 0-4.5 0.8-8.6 1.8z"/>
		<path class="s0" d="m585.9 106.8c0 0.4 0 4.5 0.1 9.2 0.3 25.8-7.7 79.5-16.3 108.8-1.4 4.5-2.1 8.4-1.7 8.7 0.4 0.3 5.1 1 10.3 1.7l9.5 1.2 4.2-2.8c2.9-1.9 4.9-4.3 6.6-8 2.4-5.3 6.2-20.8 8.4-34.4l1.2-7.4 4.7 0.8c2.5 0.5 7.1 0.8 10.1 0.9 5.3 0 5.6-0.1 7.2-3.5 2.4-4.8 2.8-15.4 0.8-17.5-0.9-0.8-5.4-2.2-9.9-3-4.6-0.8-8.6-1.6-8.8-1.8-0.2-0.2 0.2-5 0.8-10.7 2.2-20.5 0-33.1-6.5-37.4-3.7-2.4-20.5-6.3-20.7-4.8z"/>
		<path class="s0" d="m422.5 179.7c-38.5 23.8-67.9 48.2-108.5 90l-18.5 19.1-16.5 0.7c-58 2.3-129.4 10.5-188 21.5-20.7 3.9-42.8 8.7-40.3 8.9 0.7 0.1 6.3-0.5 12.5-1.3 31.1-4 88.4-8.8 131.3-11.1 95.6-5 203.3-4 291 2.6 28.1 2.1 66.7 5.9 86.4 8.4 20.7 2.7 14.6 1-25.1-7-48-9.7-109.8-17.7-154.8-20-6.3-0.3-13.4-0.8-15.7-1.1l-4.3-0.5v-16.7c0-19 1.2-31.8 3.4-36 1.8-3.4 26.3-29.2 27.8-29.2 0.6 0 4.3 3 8.3 6.7 3.9 3.8 10.8 9.4 15.2 12.5 14.4 10.4 41.3 25.1 42.9 23.5 0.3-0.3-0.2-4.5-1.1-9.4-1.1-5.4-1.8-15-2-24.9l-0.3-16.2-6.7-7.8c-3.7-4.4-9.2-11.4-12.2-15.7-3-4.2-6-7.7-6.6-7.6-0.7 0-8.8 4.8-18.2 10.6z"/>
		<path class="s0" d="m217 357.5v6.5h7.5 7.5v-6.5-6.5h-7.5-7.5z"/>
		<path class="s0" d="m413.3 352.4c-16.4 5.2-26.7 23.1-23.2 40.5 2.5 12.9 11.1 23 22.6 26.6 10.8 3.4 29.9 0.6 37.7-5.6 2.6-2 2.6-2.1 2.6-17v-14.9h-14.5-14.5v6.5 6.5h7 7v4.6c0 4.2-0.2 4.6-3.5 6-4.3 1.8-12.6 1.8-16.8 0-6.7-2.8-11.7-11.1-11.7-19.6 0-17.6 17.9-26.9 30.4-16 1.8 1.7 3.6 3 4 3 0.3 0 3-1.6 6.1-3.5l5.5-3.6-1.5-3c-2.1-3.9-8.7-8.6-14.8-10.4-6.1-1.8-16.7-1.8-22.4-0.1z"/>
		<path class="s0" d="m55 386v34h8 8v-10.9-10.9l11.8-0.4c12.2-0.4 15.9-1.5 21-6.2 9.1-8.2 8.5-26.7-1.1-34-6.1-4.6-11.3-5.6-30.4-5.6h-17.3zm36.5-17.5c1.9 1.8 2.5 3.5 2.5 6.5 0 3-0.6 4.7-2.5 6.5-2.2 2.3-3.2 2.5-11.5 2.5h-9v-9-9h9c8.3 0 9.3 0.2 11.5 2.5z"/>
		<path class="s0" d="m357.5 357.2c-0.2 0.7-0.3 4-0.2 7.3l0.2 6-3.7 0.3-3.8 0.3v6 5.9h4 4v14.5c0 16.6 0.9 19.7 6.5 22.1 4 1.6 12.2 1.8 15.9 0.4 2.8-1 3.3-3.5 2-9.9-0.6-2.9-0.9-3.1-3.6-2.6-5.1 1.2-5.8-0.4-5.8-13.1v-11.4h5 5v-6-6h-5-5v-7.5-7.5h-7.5c-5.2 0-7.7 0.4-8 1.2z"/>
		<path class="s0" d="m140.5 372c-1.6 1-3.7 3-4.7 4.2l-1.8 2.3v-3.8-3.7h-7.5-7.5v24.5 24.5h7.5 7.5v-14.3c0-11.6 0.3-14.7 1.6-16.6 2.1-2.9 7.2-5.1 11.9-5.1h3.5v-7-7h-3.7c-2.1 0-5.1 0.9-6.8 2z"/>
		<path class="s0" d="m168.2 372.6c-15.7 7.8-19 29.2-6.3 41.4 5.3 5.2 10.2 7 18.8 7 14.7 0 24.8-8.9 26-22.9 0.7-7.1-0.9-12.9-5-18.3-7.2-9.6-22.3-12.8-33.5-7.2zm17.9 11.4c2.8 1.6 4.9 6.3 4.9 11.5 0 5.2-2.1 9.9-4.9 11.5-6.5 3.4-14.8-1.1-15.8-8.7-0.7-5.4 0.1-8.4 3.3-12.2 2.1-2.5 3.3-3.1 6.6-3.1 2.1 0 4.8 0.5 5.9 1z"/>
		<path class="s0" d="m256 371.6c-8.1 3.5-13.9 12-14.7 21.6-1.5 16.4 8.8 27.8 25.1 27.8 3.9 0 8.8-0.5 10.9-1.1 4-1.1 11.7-7.3 11.7-9.3 0-0.7-2.2-2.3-4.9-3.6l-4.9-2.3-2.7 2.1c-7 5.6-19.5 2.3-19.5-5 0-1.7 1.4-1.8 17.6-1.8h17.7l-0.6-6c-0.4-3.3-1.3-7.5-2.1-9.3-2-4.9-7.5-10.8-12.1-12.8-5-2.3-16.5-2.5-21.5-0.3zm17.6 12.5c1.2 1.1 2.4 3.1 2.7 4.5l0.4 2.4h-10.3-10.4l1.3-3.3c2.6-6.3 11.3-8.3 16.3-3.6z"/>
		<path class="s0" d="m313 372.1c-5.6 2.5-9.5 6.2-12.3 11.4-1.7 3.1-2.2 5.8-2.2 12 0 7.1 0.3 8.6 3.1 13.5 4.4 7.8 10.1 11.1 19.8 11.8 11.2 0.7 19.5-2.9 23.2-10 1.5-3 1.5-3.2-0.2-4.5-1-0.7-2.4-1.3-3.1-1.3-0.8 0-2.7-0.7-4.3-1.5-2.7-1.4-3-1.4-5.9 1.5-4.9 5-12.5 4-15.7-2.1-3.1-6.1-1.2-16.3 3.5-18.9 1.1-0.5 3.8-1 6.1-1 3.1 0 4.7 0.6 6.4 2.5l2.3 2.5 6.2-2.2c3.3-1.2 6.1-2.8 6.1-3.5 0-2.2-6.4-8.6-10.5-10.4-5.6-2.6-16.6-2.5-22.5 0.2z"/>
		<path class="s0" d="m541 371.1c-1.4 0.6-3.7 2.2-5.2 3.6l-2.8 2.7v-3.2-3.2h-7.5-7.5v24.5 24.5h8 8v-16.4-16.5l2.6-2c3.8-3 8.7-2.8 11.3 0.5 1.9 2.4 2.1 4 2.1 18.5v15.9h7.4 7.5l0.3-16.1 0.3-16.1 2.8-2.4c3.4-2.9 8-3.1 10.7-0.4 1.8 1.8 2 3.3 2 18.5v16.5h8 8v-18.8c0-17.5-0.2-19.1-2.2-23.2-2.8-5.6-7.3-8-14.6-8-5.6 0-11.3 2.3-14.6 5.9l-1.9 2-1.9-2.4c-1.1-1.4-3.3-3.2-4.8-4-3.3-1.7-12.2-1.9-16-0.4z"/>
		<path class="s0" d="m217 396.8c0 24.1-0.1 26-1.9 27.6-1.1 1-3.1 1.6-4.7 1.4-2.7-0.3-2.8-0.2-3.2 5.8l-0.4 6.2 4.1 0.7c9.1 1.5 15.9-1.6 19.2-8.9 1.7-3.7 1.9-7 1.9-31.4v-27.2h-7.5-7.5z"/>
		<path class="s0" d="m459 371.8c0 0.4 4.1 11 9 23.5 5 12.5 9 23.8 9 25.1 0 3.7-3.2 5.9-8 5.4-4.4-0.4-4.3-0.6-5.4 7.4-0.6 4.7 1 5.8 8.5 5.8 6.6 0 13.1-3 15.8-7.3 2-3.3 14.4-34.1 20.5-51l3.5-9.7h-7.9-7.9l-4.7 14.7c-2.6 8.2-4.9 15.2-5.2 15.7-0.5 0.8-4.5-9.5-9.5-24.2l-2.1-6.2h-7.8c-4.3 0-7.8 0.4-7.8 0.8z"/>
	</g>
</svg>